<?xml version="1.0" encoding="UTF-8"?>
<svg version="1.1" viewBox="0 0 30.239 30.239" xmlns="http://www.w3.org/2000/svg">
	<path fill="#222"
		d="m20.194 3.46c-4.613-4.613-12.121-4.613-16.734 0-4.612 4.614-4.612 12.121 0 16.735 4.108 4.107 10.506 4.547 15.116 1.34 0.097 0.459 0.319 0.897 0.676 1.254l6.718 6.718c0.979 0.977 2.561 0.977 3.535 0 0.978-0.978 0.978-2.56 0-3.535l-6.718-6.72c-0.355-0.354-0.794-0.577-1.253-0.674 3.209-4.611 2.769-11.008-1.34-15.118zm-2.121 14.614c-3.444 3.444-9.049 3.444-12.492 0-3.442-3.444-3.442-9.048 0-12.492 3.443-3.443 9.048-3.443 12.492 0 3.444 3.444 3.444 9.048 0 12.492z"/>
</svg>
