<svg version="1" xmlns="http://www.w3.org/2000/svg" width="373.333" height="373.333" viewBox="0 0 280.000000 280.000000"><path d="M116.4 2C57.9 12.2 12.2 57.6 2.1 115.6c-2.6 14.9-2.2 38.7.8 53.1 3.5 16.8 10.7 33.9 20.5 49 7.4 11.3 22 27.2 31.7 34.5 8.4 6.2 28.5 16.9 34.6 18.4 1.5.4 3.3 1 3.8 1.4.6.3 3.7 1.4 7 2.3 15 4.2 20.3 4.9 37 5.2 14.7.3 18.5 0 28.5-2 6.3-1.3 14.4-3.4 18-4.6 11.2-3.7 31.5-14.1 32.4-16.6.3-.8-1.9-6.7-5-13.1-4.8-10-5.5-12.1-5-15.5.8-5.1 2.9-11.7 3.7-11.7.6 0 4.1-2.9 8-6.5.9-.8 2.1-1.5 2.7-1.5.6 0 1.5-.6 1.9-1.3.9-1.4 4.5-4 10.7-7.6 2.3-1.3 4.7-3.2 5.4-4.3.7-1 1.9-1.8 2.5-1.8 1 0 7.7-5.4 11-8.7 6.2-6.5 8.7-9.6 8.7-11.1 0-1 .6-2.4 1.3-3 .6-.7 1.3-1.7 1.3-2.2.1-.6.2-1.4.3-1.9 0-.5 1-1.1 2.1-1.4 1.2-.3 2-1.4 2-2.6 0-1.2.9-2.9 2-3.8 1.1-1 2-2.5 2-3.5s.5-1.8 1.1-1.8c.7 0 .9-.9.5-2.3-.6-2.5 1.7-6.7 3.6-6.7.6 0 .1 1.1-1.2 2.5s-1.8 2.5-1.2 2.5c2.1 0-.2 6.1-4.2 10.7-1.1 1.3-1.6 2.3-1.2 2.3.4 0 .2.9-.4 2-.6 1.1-1.7 2-2.5 2s-1.5.8-1.5 1.9c0 1-.7 2.4-1.5 3.1-.8.7-1.5 2.1-1.5 3.2 0 1-1.5 3.4-3.3 5.2-1.9 1.9-3.7 4.1-4 5-.4.9-1.4 1.9-2.4 2.3-1 .4-3.2 2.2-5.1 4-1.8 1.8-3.8 3.3-4.5 3.3-.7 0-2.2 1-3.3 2.3-1.2 1.2-3.5 2.9-5 3.7-3 1.5-7.7 4.9-10.5 7.5-.9.8-2 1.5-2.5 1.5s-1.7.8-2.6 1.7c-.9 1-2.8 2.7-4.3 3.8-3.8 2.9-5.4 5.9-6.5 11.5-.9 4.8-.8 5.4 3.9 15 7.7 15.5 6.8 14.9 13.7 9.6 6.8-5.1 16.8-14.8 22.2-21.5 2-2.5 3.9-4.8 4.2-5.1 6.7-6.7 20.4-35.3 23.6-49.2.2-1 .6-2.8.9-4 2.7-11 3.7-31.6 2-39.6-.5-2-.3-3.2.3-3.2 1.5 0 .7-22.7-1-25.5-.3-.6-.8-3.1-1.2-5.7-.4-2.5-1.4-5.2-2.1-5.8-.8-.7-1.5-2.2-1.5-3.4 0-1.2-.9-2.9-2-3.9-1.2-1-1.8-2.2-1.5-2.7.3-.5-.4-1.4-1.5-2-1.1-.6-2-1.6-2-2.2 0-1.5-8.9-9.8-10.6-9.8-.8 0-1.4-.5-1.4-1 0-.6-1.2-1-2.6-1-1.7 0-2.8-.6-3.1-2-.4-1.5-1.4-2-3.7-2-3.6 0-7.6-2.4-7.6-4.6 0-1.7-2.1-1.9-3.7-.3-.8.8-1.7.7-3.2-.3-1.2-.8-1.8-1.8-1.4-2.1.3-.4.1-.8-.5-.8-.7-.1-2.4-.3-3.9-.5-1.6-.3-4.5-.6-6.6-.8-2-.1-4.6-1.1-5.6-2-1.2-1.1-2.1-1.4-2.6-.7-1 1.8-5.5 1.3-8.2-.9-2.1-1.6-2.2-2-.8-2 1 0 2.3.8 3 1.7 1.1 1.4 1.6 1.5 4.4.3 2.8-1.1 3.4-1 5.1.5 1.1 1 2.6 1.5 3.5 1.1.9-.3 2.8 0 4.3.8 1.9 1 3.3 1.1 4.5.5 1.2-.7 2.2-.4 3.8 1.5 1.7 2 2.8 2.3 5.5 1.9 2.6-.4 3.4-.2 3.4 1 0 1.9 3.7 4.3 7.2 4.5 1.5.1 3.7 1.1 4.8 2.2 1.2 1.2 2.5 1.8 3 1.5.6-.4 1.3.1 1.6.9.6 1.7 3.4 2.2 3.4.8 0-.8-2.7-4.8-7.1-10.7-.4-.5-2.7-3.2-5.1-6-20.7-23.7-49-40.2-79.3-46-13-2.5-37.2-2.8-50.1-.5zm48.8 34.4c9.8 1.6 12.4 2.4 23 6.7 8.2 3.4 8.2 4.8 0 4.4-3.7-.2-7.5-.6-8.4-1-1.1-.4-3.1.1-5 1.3-2.5 1.5-3.8 1.8-5.1 1-1.3-.7-2.3-.6-3.4.3-.8.7-2.7 1.2-4.2 1.1-1.7-.1-3.5.6-4.6 1.8-1.4 1.6-2.6 1.9-5.5 1.4-3.1-.5-4.2-.2-6.1 1.7-1.3 1.3-3.3 2.2-4.5 2.1-1.3-.2-2.7.6-3.7 2.2-1.1 1.6-2.3 2.3-3.5 1.9-1.1-.2-2.6.3-3.5 1.1-.8.9-2 1.6-2.6 1.6-.6 0-1.8 1.1-2.7 2.5-.9 1.4-2.4 2.5-3.4 2.5s-2.5 1.1-3.4 2.5c-.9 1.4-2.2 2.5-2.9 2.5-1.5.1-5.7 3.5-5.7 4.8 0 .5-.7 1.5-1.5 2.2-.8.7-1.5 2.3-1.5 3.7 0 2.7-7.8 13.6-9.1 12.7-1.1-.6-.1-9 1.3-11.7.5-1 .7-2.5.4-3.3-.7-1.8-8.3-1.1-12.7 1.2-3 1.5-3.2 1.5-2.5-.2 1.3-3.3 1.1-3.8-1-4.2-3.8-.6-13.7 3.9-17.6 8-2.1 2.1-3.8 4.5-3.8 5.2 0 .8-.6 1.9-1.4 2.5-1.1.9-1.8.6-3.5-1.5-2.6-3.3-2.8-10.1-.4-15.1 2.6-5.5 11.8-14.8 19.6-19.9 4-2.6 9.1-6 11.5-7.6 4.8-3.3 18.4-9.8 25.4-12.2 5.3-1.7 7.6-2.2 16.3-3.2 3.3-.3 6.1-.7 6.2-.8.9-.7 21.9.5 29.5 1.8zm-84.3 49c-.7 2-1 3.8-.7 4.1.3.3 2.2-.5 4.3-1.9C88 85.2 93.8 83 96.7 83c.9 0 1 .7.2 2.7-.9 2.4-1.1 6-.8 16.1.1 1.3-.6 3.1-1.4 4-2.1 2.5-5.8 13-6.4 18.4-.3 3.2 0 5.7 1.1 7.9 2.2 4.5 2 6.7-1.4 13.5-2.8 5.6-3.4 6.2-9.9 9.2-5.4 2.5-7.2 3.9-8.5 6.6-3.1 6.6 1.1 11.7 9.9 11.9 1.9.1 3.5.4 3.5.8 0 .3-1.3 2-3 3.7-3.5 3.8-3.6 4.5-1 8.2 1.7 2.4 1.8 3 .7 3.7-2 1.2-3.7 4.8-3.7 7.9 0 3 2.4 5.3 5.5 5.4 4.6.1 4.9 1.4 2 7.5-3.1 6.7-2.9 10.7 1.2 15.5 4.4 5.3 9.8 7.4 21.8 8.5 3.3.3 7.2.8 8.7 1.1 5 1 9.4 6.6 12.6 16.1 1.7 5.3 1.8 6.4.6 8.1-1.6 2.3-9.6 5.9-14.4 6.4-3.3.3-3.5.1-3.7-3-.8-9.5-10.5-19-23.2-22.7-4.8-1.5-6.4-1.8-14.8-3.5-8.8-1.8-13.3-4.3-16.6-9-2.4-3.5-2.1-6.3 1.4-13.1 3.6-6.9 3.4-11.4-.7-15.8-3-3.1-2.8-6.1.5-7.8l2.5-1.2-2.7-1.2c-3.6-1.6-3.8-2.7-1.7-8.8 3.1-9.2 1.4-10.9-10.9-11.4-13.1-.6-14.6-4.6-5.1-14.2 11.6-11.8 17.1-18 17.7-20.4.3-1.4-.1-4.3-1-6.6-1.4-4-1.4-4.5.9-10.1 1.3-3.3 3.3-8.7 4.4-12.1 3-9.7 5.6-14.7 9.2-17.7 3.3-2.8 10.9-6.8 11.6-6.1.2.2-.2 1.9-.9 3.9zm196.2 56.9c-.6.6-.8-.6-.6-3.4.4-6.4.8-7 1.2-2 .3 2.4 0 4.8-.6 5.4zM107 139.2c2.5 2.8 2.5 3.4-.2 4.1-3 .8-3.9 0-3.6-3.4.3-3.5 1-3.6 3.8-.7z"/><path d="M67 119.9c-2.7 1.1-6.4 4-5.8 4.6.3.4 2.6 0 5-.8 3.8-1.3 4.6-1.3 7.3.1 1.6.8 3.5 2.2 4.2 3.1.7.9 1.3 1.3 1.3.9s-1.2-2-2.7-3.7c-3.1-3.4-7-5.1-9.3-4.2zM64.4 135.2c-.3 1.2-.7 3.7-.9 5.5-.2 3.2-.1 3.3 3.1 3.1 2.3-.1 3.1-.5 2.4-1.2-.6-.6-1-2.3-1-3.9v-2.8l3 1.8c1.7.9 3 2.1 3 2.5 0 .4.6.8 1.3.8 1.6-.1-7.2-8-8.9-8-.7 0-1.6 1-2 2.2z"/></svg>